<?xml version="1.0" encoding="UTF-8" standalone="no"?>
<!-- Created with Inkscape (http://www.inkscape.org/) -->

<svg
   version="1.1"
   id="svg1"
   width="2235.7722"
   height="1289.9257"
   viewBox="0 0 2235.7722 1289.9256"
   sodipodi:docname="anthkui_vocal_tract.svg"
   xml:space="preserve"
   inkscape:version="1.3.2 (091e20e, 2023-11-25, custom)"
   xmlns:inkscape="http://www.inkscape.org/namespaces/inkscape"
   xmlns:sodipodi="http://sodipodi.sourceforge.net/DTD/sodipodi-0.dtd"
   xmlns="http://www.w3.org/2000/svg"
   xmlns:svg="http://www.w3.org/2000/svg"><defs
     id="defs1"><inkscape:path-effect
       effect="skeletal"
       id="path-effect3"
       is_visible="true"
       lpeversion="1"
       pattern="M 0,0 H 1"
       copytype="single_stretched"
       prop_scale="1"
       scale_y_rel="false"
       spacing="0"
       normal_offset="0"
       tang_offset="0"
       prop_units="false"
       vertical_pattern="false"
       hide_knot="false"
       fuse_tolerance="0" /></defs><sodipodi:namedview
     id="namedview1"
     pagecolor="#ffffff"
     bordercolor="#000000"
     borderopacity="0.25"
     inkscape:showpageshadow="2"
     inkscape:pageopacity="0.0"
     inkscape:pagecheckerboard="0"
     inkscape:deskcolor="#d1d1d1"
     inkscape:zoom="0.16857465"
     inkscape:cx="605.0732"
     inkscape:cy="584.31088"
     inkscape:window-width="1366"
     inkscape:window-height="705"
     inkscape:window-x="-8"
     inkscape:window-y="-8"
     inkscape:window-maximized="1"
     inkscape:current-layer="svg1"><inkscape:page
       x="0"
       y="0"
       width="2235.7722"
       height="1289.9257"
       id="page20"
       margin="0 0 0 0"
       bleed="0" /></sodipodi:namedview><g
     inkscape:groupmode="layer"
     id="layer4"
     inkscape:label="Image 2"
     style="display:inline"
     transform="translate(-571.07494,-141.53588)"
     sodipodi:insensitive="true"><path
       id="path4"
       style="display:inline;fill:#9f9fa2;fill-opacity:0.952941;stroke:none;stroke-width:15.1181;stroke-linecap:round;stroke-linejoin:round;stroke-dasharray:none;stroke-opacity:1"
       inkscape:label="top lip"
       d="m 710.44822,477.83886 -35.59254,37.07556 c -18.14907,39.40643 -19.62224,94.93007 -54.87184,91.9474 -21.62417,-1.82974 -60.68672,-190.51968 17.79627,-452.32188 v 0 0 C 1882.6914,38.246199 1853.2492,728.13029 2026.6362,1179.7147 m 0,0 c -203.067,145.4377 -473.9389,239.6758 -870.3841,239.0934 -137.3546,4.3722 -261.12713,-31.926 -356.54271,-104.8656 C 704.29381,1241.0029 597.3246,950.36801 592.8103,912.77631 c -4.5143,-37.5917 -4.05779,-91.04125 9.7519,-148.85349 8.16488,-34.18105 27.12979,-64.9736 48.76247,-54.00575 36.2576,18.38273 47.02855,164.70184 59.24902,159.91994 l -0.12547,-391.99815"
       sodipodi:nodetypes="ccsssscccssccc" /></g><g
     inkscape:groupmode="layer"
     id="layer6"
     inkscape:label="Image 3"
     style="display:inline" /><g
     inkscape:groupmode="layer"
     id="layer1"
     inkscape:label="Image 1"
     sodipodi:insensitive="true"
     transform="translate(-571.07494,-141.53588)"><path
       id="path13"
       style="display:inline;fill:#5a5a5a;fill-opacity:1;fill-rule:nonzero;stroke:#5a5a5a;stroke-width:37.7953;stroke-linecap:round;stroke-linejoin:round;stroke-dasharray:none;stroke-opacity:1"
       d="m 981.46196,525.36087 c -58.8353,-0.12712 -121.83418,3.63671 -165.73828,9.9004 -38.95446,5.55753 -77.38423,8.4587 -85.39844,6.44726 -14.42647,-3.62082 -14.53332,-3.34443 -10.79101,27.81641 2.07892,17.31051 3.80363,56.45192 3.83203,86.98047 0.0469,50.53336 0.98059,55.12125 10.43164,51.21289 21.27958,-8.7999 94.57614,-20.69027 127.58007,-20.69727 47.69979,-0.01 148.75423,15.75478 191.66983,29.90039 35.0427,11.55057 63.4482,34.36122 87.1329,69.9707 9.1239,13.71771 9.2607,13.73266 13.1445,1.4961 10.765,-33.91744 65.6384,-19.37343 158.5703,42.02929 106.4174,70.3129 87.2688,65.88983 289.4707,66.88868 187.5151,0.92631 239.3877,6.0955 370.7559,36.95703 81.8052,19.21799 152.5199,43.90015 213.2832,74.44338 37.919,19.0605 58.8918,35.5274 106.7968,83.8476 45.3201,45.713 69.0056,64.667 98.7891,79.0567 50.3939,24.3474 102.9817,41.0525 162.4746,51.6113 26.1012,4.6324 50.0484,7.8115 53.2149,7.0645 3.1664,-0.7471 7.67,-10.5062 10.0078,-21.6856 2.3379,-11.1795 9.43,-43.5129 15.7597,-71.8515 l 11.5079,-51.5254 -92.7012,-42.5567 c -124.7142,-57.2546 -196.8309,-80.67274 -271.9531,-88.31053 -96.2118,-9.78199 -168.4638,-50.33268 -158.7364,-89.08985 8.3244,-33.16716 25.935,-36.91924 95.8867,-20.42187 52.4366,12.36662 122.9569,8.35585 221.3379,-12.58984 75.7208,-16.12123 240.2499,-63.64493 293.6387,-84.81641 l 29.6602,-11.76172 -50.1075,-24.33203 c -27.807,-13.50252 -58.8539,-24.33203 -69.7558,-24.33203 -10.805,0 -129.7357,18.49052 -264.291,41.08984 -381.2427,64.03183 -505.0605,77.2353 -739.9766,78.91016 -155.9511,1.11187 -195.8498,-4.43579 -263.2676,-36.61133 -49.4398,-23.59545 -88.6833,-59.50066 -144.209,-131.93945 C 1153.6307,539.50756 1123.2795,525.66729 981.46196,525.36087 Z M 727.31743,793.67533 c -0.0435,-0.008 -0.0763,-6.2e-4 -0.0977,0.0273 -0.11074,0.14502 0.41484,13.71274 1.16797,30.15039 0.75313,16.43766 1.39218,31.1854 1.42188,32.77149 0.0297,1.58608 0.45951,2.88281 0.95507,2.88281 2.64672,0 10.56142,-8.85385 13.30078,-14.88086 4.42225,-9.72961 4.24414,-16.81796 -0.67578,-27.06445 -3.03523,-6.32136 -14.72339,-23.62488 -16.07226,-23.88672 z m 419.82217,4.05664 c -3.4941,0.0255 -2.7996,1.12306 3.4786,17.05078 3.3122,8.40307 8.5625,30.36953 11.6679,48.81641 3.1054,18.44688 7.6674,37.45138 10.1387,42.23046 6.8294,13.2066 24.0883,26.84802 36.6191,28.94532 6.1524,1.02972 12.521,2.29198 14.1524,2.80468 10.3508,3.25314 34.907,-11.21311 40.7305,-23.99414 3.8932,-8.54493 1.4558,-13.90808 -17.0469,-37.48242 -10.0969,-12.86447 -18.6287,-19.41778 -40.918,-31.43359 -32.8101,-17.68745 -44.424,-26.75149 -49.2734,-38.45899 -1.9282,-4.6551 -5.4372,-8.46484 -7.7989,-8.46484 -0.666,0 -1.2508,-0.0173 -1.75,-0.0137 z"
       sodipodi:insensitive="true" /></g><g
     inkscape:groupmode="layer"
     inkscape:label="Image"
     id="g1"
     style="display:inline;stroke:#000000;stroke-opacity:1"
     transform="translate(-571.07494,-141.53588)"><g
       id="g10"
       inkscape:label="main"
       transform="translate(245.81236,-171.97947)"
       style="stroke:#000000;stroke-opacity:1"><path
         style="display:inline;fill:none;fill-opacity:1;stroke:#000000;stroke-width:15.1181;stroke-linecap:round;stroke-linejoin:round;stroke-dasharray:none;stroke-opacity:1"
         d="m 379.66564,333.3786 v 0 c -78.48299,261.8022 -39.42044,450.49215 -17.79627,452.32185 35.2496,2.9827 36.72277,-52.5409 54.87184,-91.9474 l 35.59254,-37.07553"
         id="path4-9"
         sodipodi:nodetypes="ccscc"
         inkscape:label="top lip" /><path
         id="path19"
         style="display:inline;fill:none;fill-opacity:1;stroke:#000000;stroke-width:15.1181;stroke-linecap:round;stroke-linejoin:round;stroke-dasharray:none;stroke-opacity:1"
         d="m 1069.705,883.52662 c 52.3606,65.22888 112.8865,102.32494 336.7093,87.23889 m 0,0 c 399.8839,-2.24336 688.3645,-80.95195 1013.8785,-122.47658"
         inkscape:label="throat upper"
         sodipodi:insensitive="true" /><path
         style="display:inline;fill:#ec8320;fill-opacity:0.952941;stroke:#000000;stroke-width:15.1181;stroke-linecap:round;stroke-linejoin:round;stroke-dasharray:none;stroke-opacity:1"
         d="m 834.36809,592.16128 -7.91809,94.67099 -30.03121,-1.85378 c -20.00843,-1.23509 32.48505,4.95484 53.7875,7.76527 102.38914,16.77702 150.08341,109.24073 202.44401,174.46961 l 80.5101,-85.01926"
         id="path18"
         inkscape:label="velum"
         sodipodi:nodetypes="ccsccc"
         sodipodi:insensitive="true" /><path
         id="path5"
         style="display:inline;fill:#2a83a2;fill-opacity:0.952941;stroke:#000000;stroke-width:15.1181;stroke-linecap:round;stroke-linejoin:round;stroke-dasharray:none;stroke-opacity:1"
         d="m 575.08908,598.1553 c -7.22791,28.70737 -100.80642,100.77894 -72.24807,95.29135 58.43676,3.63538 155.97147,-5.52062 211.93064,-8.55916 30.2968,-1.51927 85.90719,3.16094 105.90622,4.54007 l 14.87249,-99.26725"
         sodipodi:nodetypes="ccccc"
         inkscape:label="palate"
         sodipodi:insensitive="true" /><path
         style="fill:none;fill-opacity:1;stroke:#000000;stroke-width:15.1181;stroke-linecap:round;stroke-linejoin:round;stroke-dasharray:none;stroke-opacity:1"
         d="m 1771.1731,1356.4357 c -203.067,145.4377 -473.9389,239.6758 -870.38395,239.0934 -137.3546,4.3722 -261.12722,-31.926 -356.5428,-104.8656 -95.41558,-72.9396 -202.38479,-363.5745 -206.89909,-401.1662 -4.5143,-37.5917 -4.05779,-91.04125 9.7519,-148.85349 8.16488,-34.18105 27.12979,-64.9736 48.76247,-54.00575 36.2576,18.38273 47.02855,164.70184 59.24902,159.91994"
         id="path6"
         sodipodi:nodetypes="cczzssc"
         inkscape:label="bottom lip"
         sodipodi:insensitive="true" /><path
         style="fill:#255666;fill-opacity:0.952941;stroke:#000000;stroke-width:15.1181;stroke-linecap:round;stroke-linejoin:round;stroke-dasharray:none;stroke-opacity:1"
         d="m 477.13816,1043.9364 v 0 c 19.81675,-2.0079 31.04281,-15.47 34.0813,-39.8489 -7.18729,-35.84874 -36.29878,-45.90886 -43.51919,-79.17352 14.04461,-30.88662 34.54934,-43.20038 59.77335,-41.94621 75.05654,-19.72948 121.29836,-12.18978 170.93082,-3.6703 49.10327,5.5107 98.13187,13.20801 140.5198,36.17861 26.96958,21.26856 49.1808,47.29549 60.82201,83.89242 13.42073,54.9592 11.8989,117.3049 82.84377,121.644 30.83278,0.7777 59.79778,-41.2622 51.38408,-38.2759"
         id="path7"
         sodipodi:nodetypes="cccccccczc"
         inkscape:label="tounge" /><path
         style="fill:#ec5666;fill-opacity:0.952941;stroke:#000000;stroke-width:15.1181;stroke-linecap:round;stroke-linejoin:round;stroke-dasharray:none;stroke-opacity:1"
         d="m 1037.1115,1053.5221 c -9.713,-14.2387 -25.3611,-32.711 -36.8192,-38.2233 -11.45813,-5.5122 -56.99433,-29.37815 -60.70573,-36.75566 -3.7113,-7.37751 -13.348,-17.75452 0.9324,-25.11503 14.2803,-7.36051 10.6685,-7.93719 52.0247,5.71491 41.35623,13.6521 99.93273,62.73728 142.67973,88.18318 42.747,25.4459 79.434,32.8684 118.6418,37.0756"
         id="path8-0"
         sodipodi:nodetypes="czzzzzc"
         inkscape:label="epiglottis" /><path
         style="display:inline;fill:none;fill-opacity:1;stroke:#000000;stroke-width:15.1181;stroke-linecap:round;stroke-linejoin:round;stroke-dasharray:none;stroke-opacity:1"
         d="m 2417.1505,1258.3864 -4.1946,-5.2433 c 2.8546,-2.4468 -207.1873,-103.8814 -290.4775,-123.7413 -83.2903,-19.86 -113.1945,-5.6199 -158.347,-27.2651 -28.1399,-13.4897 -80.6101,-32.4309 -70.2599,-61.8706 12.6504,-35.9822 10.264,-23.7708 114.3034,-5.2433 104.0394,18.5275 379.6892,-58.9684 545.3008,-124.78999"
         id="path10"
         sodipodi:nodetypes="cczsszc"
         inkscape:label="diverter" /><path
         style="fill:none;fill-opacity:1;stroke:#000000;stroke-width:15.1181;stroke-linecap:round;stroke-linejoin:round;stroke-dasharray:none;stroke-opacity:1"
         d="m 1260.5692,1088.5386 5.9321,-1.4831 c 267.6207,-28.1106 670.3922,54.7282 763.7566,188.3439 93.3644,133.6157 339.1081,143.6949 336.6461,145.3362"
         id="path9"
         sodipodi:nodetypes="cczc"
         inkscape:label="throat lower" /></g></g><g
     inkscape:groupmode="layer"
     id="layer5"
     inkscape:label="Layer 1"
     transform="translate(-571.07494,-141.53588)"><g
       id="g17"
       inkscape:label="teeth"><path
         style="fill:#ecd866;fill-opacity:0.952941;stroke:#000000;stroke-width:15.1181;stroke-linecap:round;stroke-linejoin:round;stroke-dasharray:none;stroke-opacity:1"
         d="m 708.03827,806.94362 c 0,0 -23.82921,242.24518 82.44534,225.64898 39.12049,-6.1092 -6.96474,-82.16068 -36.71625,-118.54775 -39.70663,-48.56264 -45.72909,-107.10123 -45.72909,-107.10123 z"
         id="path11-5"
         sodipodi:nodetypes="cszc"
         inkscape:label="bottom" /><path
         style="fill:#ecd866;fill-opacity:0.952941;stroke:#000000;stroke-width:15.1181;stroke-linecap:round;stroke-linejoin:round;stroke-dasharray:none;stroke-opacity:1"
         d="m 708.92139,548.19758 c 0,0 11.55999,-243.13971 114.30342,-211.30404 37.82066,11.71896 -18.80834,80.28155 -53.52305,111.96841 -46.33067,42.28967 -60.78037,99.33563 -60.78037,99.33563 z"
         id="path11"
         sodipodi:nodetypes="cszc"
         inkscape:label="top" /></g></g><rect
     style="fill:#ec0020;fill-opacity:0.952941;fill-rule:nonzero;stroke:#000000;stroke-width:17.1918;stroke-linecap:round;stroke-linejoin:round;stroke-dasharray:none;stroke-opacity:1"
     id="rect21"
     width="65.91114"
     height="187.90218"
     x="-852.08588"
     y="1642.4742"
     transform="matrix(-0.21065644,-0.97756016,0.98785284,-0.15539227,0,0)" /><rect
     style="fill:#ec0020;fill-opacity:0.952941;fill-rule:nonzero;stroke:#000000;stroke-width:16.3786;stroke-linecap:round;stroke-linejoin:round;stroke-dasharray:none;stroke-opacity:1"
     id="rect21-2"
     width="60.246525"
     height="186.58105"
     x="-1136.7369"
     y="1492.856"
     transform="matrix(-0.34866598,-0.93724705,0.97984915,-0.19973894,0,0)"
     inkscape:transform-center-x="-17.843517"
     inkscape:transform-center-y="-9.0649932" /></svg>
