<?xml version="1.0" encoding="UTF-8" standalone="no"?>
<!-- Created with Inkscape (http://www.inkscape.org/) -->

<svg
   width="843.85925mm"
   height="1097.7413mm"
   viewBox="0 0 843.85925 1097.7413"
   version="1.1"
   id="svg1"
   inkscape:version="1.3.2 (091e20e, 2023-11-25, custom)"
   sodipodi:docname="anthkui_mandibles.svg"
   xmlns:inkscape="http://www.inkscape.org/namespaces/inkscape"
   xmlns:sodipodi="http://sodipodi.sourceforge.net/DTD/sodipodi-0.dtd"
   xmlns="http://www.w3.org/2000/svg"
   xmlns:svg="http://www.w3.org/2000/svg">
  <sodipodi:namedview
     id="namedview1"
     pagecolor="#ffffff"
     bordercolor="#000000"
     borderopacity="0.25"
     inkscape:showpageshadow="2"
     inkscape:pageopacity="0.0"
     inkscape:pagecheckerboard="0"
     inkscape:deskcolor="#d1d1d1"
     inkscape:document-units="mm"
     inkscape:zoom="0.056680521"
     inkscape:cx="714.53119"
     inkscape:cy="1949.5234"
     inkscape:window-width="1366"
     inkscape:window-height="705"
     inkscape:window-x="-8"
     inkscape:window-y="-8"
     inkscape:window-maximized="1"
     inkscape:current-layer="layer1" />
  <defs
     id="defs1">
    <inkscape:path-effect
       effect="mirror_symmetry"
       start_point="184.84244,570.27822"
       end_point="184.84244,937.41518"
       center_point="184.84244,753.8467"
       id="path-effect1"
       is_visible="true"
       lpeversion="1.2"
       lpesatellites=""
       mode="free"
       discard_orig_path="false"
       fuse_paths="false"
       oposite_fuse="false"
       split_items="false"
       split_open="false"
       link_styles="false" />
  </defs>
  <g
     inkscape:label="Layer 1"
     inkscape:groupmode="layer"
     id="layer1"
     transform="translate(231.48667,122.04543)">
    <path
       style="fill:#f0f0f0;fill-opacity:1;stroke:#000000;stroke-width:12.0776;stroke-linecap:round;stroke-linejoin:round;stroke-dasharray:none;stroke-opacity:1"
       d="m 223.32075,577.18075 c 43.6064,-69.41854 146.67333,95.0054 186.04768,78.14807 C 435.10341,582.45094 414.37867,391.16299 523.79215,287.4305 530.45974,32.884491 420.58136,-21.068324 264.89447,-115.10637 L 251.60723,32.216301 c 21.24478,38.77415 55.19509,58.828351 96.73349,60.183791 l -72.19601,57.800358 51.51541,44.083 -58.85897,37.96355 41.13139,68.24757 -36.81761,27.07036 23.543,78.29706 z"
       id="path1-9-2-2"
       sodipodi:nodetypes="ccccccccccccc"
       inkscape:label="right mandible" />
    <path
       style="fill:#f0f0f0;fill-opacity:1;stroke:#000000;stroke-width:12.0776;stroke-linecap:round;stroke-linejoin:round;stroke-dasharray:none;stroke-opacity:1"
       d="M 157.0647,576.28008 C 113.4583,506.86154 10.391371,671.28548 -28.98298,654.42815 -54.71796,581.55027 -33.99322,390.26232 -143.4067,286.52983 -150.07429,31.983756 -40.19591,-21.969059 115.49098,-116.00704 L 128.77822,31.315566 C 107.53344,70.089716 73.583131,90.143917 32.044731,91.499357 l 72.196009,57.800423 -51.515409,44.083 58.858969,37.96355 -41.131389,68.24757 36.817609,27.07036 -23.542999,78.29706 z"
       id="path1-9-2-2-8"
       sodipodi:nodetypes="ccccccccccccc"
       inkscape:label="left mandible" />
    <path
       id="path1-8"
       style="fill:#b4b4b4;fill-opacity:1;stroke:#000000;stroke-width:11.9809;stroke-linecap:round;stroke-linejoin:round;stroke-dasharray:none;stroke-opacity:1"
       d="m 562.13349,969.7055 11.15642,-63.08033 C 726.98082,728.35364 304.07282,456.33946 190.44295,530.76435 76.813085,456.1811 -346.09491,728.19527 -192.40401,906.46681 l 11.15643,63.08033"
       sodipodi:nodetypes="ccccc"
       inkscape:label="head" />
  </g>
</svg>
